<?xml version="1.0" encoding="utf-8"?>
<!-- Generator: Adobe Illustrator 24.0.2, SVG Export Plug-In . SVG Version: 6.00 Build 0)  -->
<svg version="1.1" id="Capa_1" xmlns="http://www.w3.org/2000/svg" xmlns:xlink="http://www.w3.org/1999/xlink" x="0px" y="0px"
	 viewBox="0 0 44 34" style="enable-background:new 0 0 44 34;" xml:space="preserve">
<g id="surface1">
	<path d="M40,6H4C1.8,6,0,7,0,8.3s1.8,2.3,4,2.3h36c2.2,0,4-1,4-2.3S42.2,6,40,6z"/>
	<path d="M40,14.7H4c-2.2,0-4,1-4,2.3s1.8,2.3,4,2.3h36c2.2,0,4-1,4-2.3S42.2,14.7,40,14.7z"/>
	<path d="M40,24.3H4c-2.2,0-4,1-4,2.3s1.8,2.3,4,2.3h36c2.2,0,4-1,4-2.3S42.2,24.3,40,24.3z"/>
</g>
</svg>
