<?xml version="1.0" encoding="utf-8"?>
<svg version="1.1" baseProfile="tiny" id="Capa_1" xmlns="http://www.w3.org/2000/svg" xmlns:xlink="http://www.w3.org/1999/xlink" x="0px" y="0px" viewBox="0 0 512 512" xml:space="preserve">
<g transform="translate(0.000000,512.000000) scale(0.100000,-0.100000)">
	<path d="M2365,5114c-266-29-428-61-617-125C989,4736,384,4131,131,3372c-199-594-168-1275,84-1844C576,713,1327,147,2210,23
		c172-24,528-24,700,0c820,115,1514,600,1913,1337c323,598,386,1355,167,2011c-308,919-1115,1592-2070,1724
		C2809,5110,2447,5123,2365,5114z M1890,3809c33-15,128-103,358-332l312-312l313,312c328,328,359,352,443,353c74,0,128-38,306-217
		c176-177,208-223,208-298c0-83-25-114-353-442l-312-313l312-312c328-329,353-360,353-443c0-75-32-121-208-298
		c-178-179-232-217-306-217c-84,1-115,25-443,353l-313,312l-312-312c-329-328-360-353-443-353c-75,0-121,32-298,208
		c-179,178-217,232-217,306c1,84,25,115,353,444l312,312l-312,313c-328,328-352,359-353,443c0,74,38,128,217,306
		c177,176,223,208,298,208C1827,3830,1865,3820,1890,3809z"/>
</g>
</svg>
