<?xml version="1.0" standalone="no"?>
<!DOCTYPE svg PUBLIC "-//W3C//DTD SVG 20010904//EN"
 "http://www.w3.org/TR/2001/REC-SVG-20010904/DTD/svg10.dtd">
<svg version="1.0" xmlns="http://www.w3.org/2000/svg"
 width="512.000000pt" height="512.000000pt" viewBox="0 0 512.000000 512.000000"
 preserveAspectRatio="xMidYMid meet">

<g transform="translate(0.000000,512.000000) scale(0.100000,-0.100000)"
fill="#000000" stroke="none">
<path d="M2365 5114 c-266 -29 -428 -61 -617 -125 -759 -253 -1364 -858 -1617
-1617 -199 -594 -168 -1275 84 -1844 361 -815 1112 -1381 1995 -1505 172 -24
528 -24 700 0 820 115 1514 600 1913 1337 323 598 386 1355 167 2011 -308 919
-1115 1592 -2070 1724 -111 15 -473 28 -555 19z m-475 -1305 c33 -15 128 -103
358 -332 l312 -312 313 312 c328 328 359 352 443 353 74 0 128 -38 306 -217
176 -177 208 -223 208 -298 0 -83 -25 -114 -353 -442 l-312 -313 312 -312
c328 -329 353 -360 353 -443 0 -75 -32 -121 -208 -298 -178 -179 -232 -217
-306 -217 -84 1 -115 25 -443 353 l-313 312 -312 -312 c-329 -328 -360 -353
-443 -353 -75 0 -121 32 -298 208 -179 178 -217 232 -217 306 1 84 25 115 353
444 l312 312 -312 313 c-328 328 -352 359 -353 443 0 74 38 128 217 306 177
176 223 208 298 208 22 0 60 -10 85 -21z"/>
</g>
</svg>
