<?xml version="1.0" encoding="utf-8"?>
                        <svg version="1.1" id="Capa_1" xmlns="http://www.w3.org/2000/svg" xmlns:xlink="http://www.w3.org/1999/xlink" x="0px" y="0px"
                            viewBox="0 0 512 512" style="enable-background:new 0 0 512 512;" xml:space="preserve">
                            <g transform="translate(0.000000,512.000000) scale(0.100000,-0.100000)">
                                <path d="M1810,5071c-509-169-902-442-1265-878c-61-74-198-291-259-413c-140-274-229-565-267-870c-20-156-17-508,5-655
                                    c84-578,326-1066,729-1474c405-409,910-662,1492-747c144-21,499-24,645-5c749,95,1402,486,1826,1091c113,161,218,359,289,542
                                    c46,119,115,352,115,390c0,42-36,106-73,128c-80,49-141,36-260-54c-326-249-663-378-1063-406c-156-12-231-9-404,16
                                    c-754,109-1373,659-1576,1402c-84,309-86,670-4,986c67,260,148,425,345,704c53,75,60,128,23,194C2056,5113,1977,5127,1810,5071z"/>
                            </g>
                        </svg>