<?xml version="1.0" encoding="utf-8"?>
<!-- Generator: Adobe Illustrator 24.0.2, SVG Export Plug-In . SVG Version: 6.00 Build 0)  -->
<svg version="1.1" id="Capa_1" xmlns="http://www.w3.org/2000/svg" xmlns:xlink="http://www.w3.org/1999/xlink" x="0px" y="0px"
	 viewBox="0 0 512 291.5" style="enable-background:new 0 0 512 291.5;" xml:space="preserve">
<g transform="translate(0.000000,512.000000) scale(0.100000,-0.100000)">
	<path d="M277,5111.8c-103-24-197-103-244-204c-23-51-28-73-27-145c0-160-96-52,1192-1342c777-778,1160-1155,1191-1172
		c73-39,158-53,234-37c34,7,83,24,108,37c31,17,414,394,1191,1172c1288,1290,1192,1182,1192,1342c0,72-4,94-28,147
		c-84,184-308,262-491,171c-26-13-388-368-1037-1016l-998-997l-998,997c-652,651-1011,1003-1037,1016
		C449,5117.8,355,5129.8,277,5111.8z"/>
</g>
</svg>
