<?xml version="1.0" encoding="utf-8"?>
<!-- Generator: Adobe Illustrator 24.0.2, SVG Export Plug-In . SVG Version: 6.00 Build 0)  -->
<svg version="1.1" id="Layer_1" xmlns="http://www.w3.org/2000/svg" xmlns:xlink="http://www.w3.org/1999/xlink" x="0px" y="0px"
	 viewBox="0 0 512 512" style="enable-background:new 0 0 512 512;" xml:space="preserve">
<g>
	<path d="M445.8,238.8L264.4,4.1c-2-2.6-5.2-4.1-8.4-4.1c-3.2,0-6.4,1.5-8.4,4.1L66.2,238.8c-2.5,3.2-2.9,7.6-1.1,11.2
		c1.8,3.7,5.5,6,9.6,6h96v245.3c0,5.9,4.8,10.7,10.7,10.7h149.3c5.9,0,10.7-4.8,10.7-10.7V256h96c4.1,0,7.8-2.3,9.6-6
		C448.7,246.4,448.3,242,445.8,238.8z M330.7,234.7c-5.9,0-10.7,4.8-10.7,10.7v245.3H192V245.3c0-5.9-4.8-10.7-10.7-10.7H96.4
		L256,28.1l159.6,206.6L330.7,234.7L330.7,234.7z"/>
</g>
</svg>
