<?xml version="1.0" encoding="utf-8"?>
<!-- Generator: Adobe Illustrator 24.0.2, SVG Export Plug-In . SVG Version: 6.00 Build 0)  -->
<svg version="1.1" id="Capa_1" xmlns="http://www.w3.org/2000/svg" xmlns:xlink="http://www.w3.org/1999/xlink" x="0px" y="0px"
	 viewBox="0 0 512 426" style="enable-background:new 0 0 512 426;" xml:space="preserve">
<g transform="translate(0.000000,512.000000) scale(0.100000,-0.100000)">
	<path d="M1615,5041c-115-37-225-123-281-218c-53-90-66-148-71-305l-5-148H873c-428,0-453-3-574-66S73,4115,27,3981l-22-66L2,2670
		c-2-875,1-1264,8-1310c32-187,171-353,356-427l69-28h2125h2125l69,28c185,74,324,240,356,427c7,46,10,435,8,1310l-3,1245l-22,66
		c-46,134-151,260-272,323s-146,66-574,66h-385l-5,148c-5,157-18,215-71,305c-57,97-168,182-286,219c-51,16-127,18-945,17
		C1757,5058,1660,5056,1615,5041z M2776,3865c858-150,1302-1120,856-1870c-333-561-1055-769-1636-472c-369,188-609,523-671,937
		c-68,444,126,904,496,1180c143,107,339,192,514,223C2445,3883,2666,3884,2776,3865z"/>
	<path d="M2445,3454c-379-61-667-363-704-736c-39-404,210-766,607-880c110-32,314-32,424,0c335,96,573,374,606,707
		c25,258-57,493-237,672c-99,99-239,180-376,217C2705,3451,2502,3463,2445,3454z"/>
</g>
</svg>
