<?xml version="1.0" encoding="utf-8"?>
<!-- Generator: Adobe Illustrator 24.0.2, SVG Export Plug-In . SVG Version: 6.00 Build 0)  -->
<svg version="1.1" id="Capa_1" xmlns="http://www.w3.org/2000/svg" xmlns:xlink="http://www.w3.org/1999/xlink" x="0px" y="0px"
	 viewBox="0 0 512 512" style="enable-background:new 0 0 512 512;" xml:space="preserve">
<g transform="translate(0.000000,512.000000) scale(0.100000,-0.100000)">
	<path d="M2330,5110c-494-48-950-230-1350-538c-195-150-448-432-594-662c-63-99-186-351-230-471c-49-134-102-340-128-499
		c-31-195-31-565,0-760c45-276,116-498,237-745c132-269,269-460,489-681c221-220,412-357,681-489c247-121,469-192,745-237
		c195-31,565-31,760,0c276,45,498,116,745,237c269,132,460,269,681,489c220,221,357,412,489,681c88,179,132,296,180,476
		c63,240,78,371,78,649s-15,409-78,649c-48,180-92,297-180,476c-132,269-269,460-489,681c-221,220-412,357-681,489
		c-246,121-474,193-740,235C2798,5113,2470,5124,2330,5110z M2838,4635c707-99,1309-540,1614-1183c137-288,198-564,198-892
		c0-191-16-329-59-506c-182-741-784-1343-1525-1525c-177-43-315-59-506-59s-329,16-506,59C1313,711,711,1313,529,2054
		c-43,177-59,315-59,506s16,329,59,506c182,742,784,1344,1527,1525c67,16,164,36,215,43C2402,4653,2703,4654,2838,4635z"/>
	<path d="M3616,3523c-11-3-36-16-55-28c-20-13-333-321-696-684l-660-661l-315,314c-173,172-329,321-345,329c-139,70-303-9-336-162
		c-9-41-8-61,6-108c16-57,25-66,428-471c227-227,427-422,445-433c19-12,58-23,92-26c121-11,74-52,913,786c417,416,768,772,782,791
		c54,78,52,190-5,268C3819,3509,3707,3546,3616,3523z"/>
</g>
</svg>
