<?xml version="1.0" encoding="utf-8"?>
<!-- Generator: Adobe Illustrator 24.0.2, SVG Export Plug-In . SVG Version: 6.00 Build 0)  -->
<svg version="1.1" id="Capa_1" xmlns="http://www.w3.org/2000/svg" xmlns:xlink="http://www.w3.org/1999/xlink" x="0px" y="0px"
	 viewBox="0 0 512 512" style="enable-background:new 0 0 512 512;" xml:space="preserve">
<g transform="translate(0.000000,512.000000) scale(0.100000,-0.100000)">
	<path d="M453,4945c-35-8-93-28-130-46c-93-45-217-169-261-261c-66-136-63-15-60-2111L5,625l27-74c64-174,198-306,370-362l73-24
		h2085h2085l73,24c172,56,306,188,370,362l27,74l3,1902c3,2096,6,1975-60,2111c-44,92-168,216-260,260c-134,65,0,62-2243,61
		C876,4959,504,4956,453,4945z M3481,4071c117-37,226-122,300-234c179-274,74-650-222-796c-360-177-773,61-805,464
		c-21,263,173,520,439,580C3273,4104,3395,4097,3481,4071z M1858,2941c20-11,50-33,67-50c16-18,250-320,520-673
		c450-589,494-643,544-671c64-36,144-40,207-11c22,10,114,91,205,180c175,171,194,184,285,184c59,0,133-41,176-97
		c82-109,613-871,634-912c41-75,25-144-40-175c-31-15-191-16-1858-16c-1755,0-1825,1-1858,19c-47,24-80,75-80,120c0,20,11,61,23,91
		c50,120,980,1947,1005,1974C1740,2960,1797,2972,1858,2941z"/>
</g>
</svg>
