<?xml version="1.0" encoding="utf-8"?>
<!-- Generator: Adobe Illustrator 24.0.2, SVG Export Plug-In . SVG Version: 6.00 Build 0)  -->
<svg version="1.1" id="Capa_1" xmlns="http://www.w3.org/2000/svg" xmlns:xlink="http://www.w3.org/1999/xlink" x="0px" y="0px"
	 viewBox="0 0 512 512" style="enable-background:new 0 0 512 512;" xml:space="preserve">
<g transform="translate(0.000000,512.000000) scale(0.100000,-0.100000)">
	<path d="M1253,4675c-174-47-317-182-376-354l-22-66l-3-1215c-2-798,1-1242,7-1295c13-95,67-215,130-287c51-58,136-115,221-148
		l65-25l1683-3c1853-3,1745-6,1874,59c130,66,247,220,277,367c8,37,11,428,11,1280c0,1358,3,1292-65,1421c-60,114-166,207-290,254
		l-60,22l-1700,2C1567,4689,1297,4687,1253,4675z M4625,4256c69-29,65,21,63-831l-3-769l-352,409c-238,278-365,419-395,437
		c-131,80-285,78-411-5c-34-23-167-175-459-525l-411-493l-152,150c-191,189-222,206-370,206c-164,0-163,1-537-373l-318-317v1018
		c0,1125-4,1063,63,1092C1391,4276,4574,4277,4625,4256z"/>
	<path d="M1790,4032c-73-24-125-59-183-121c-155-166-149-420,14-584c246-246,659-111,719,234c24,136-26,275-134,377
		c-84,78-148,104-271,109C1867,4049,1831,4046,1790,4032z"/>
	<path d="M267,2325C110,1802,6,1438,3,1401c-17-183,97-385,260-464c31-15,232-75,445-132c359-96,808-216,2372-635
		C3413,80,3712,5,3745,3c172-14,354,80,442,228c20,34,69,173,133,378c56,178,104,330,107,338c4,11-257,13-1578,13
		c-1527,0-1587,1-1678,20c-251,52-474,233-568,463c-69,168-66,122-72,974l-6,771L267,2325z"/>
</g>
</svg>
