<?xml version="1.0" encoding="utf-8"?>
<!-- Generator: Adobe Illustrator 24.0.2, SVG Export Plug-In . SVG Version: 6.00 Build 0)  -->
<svg version="1.1" id="Capa_1" xmlns="http://www.w3.org/2000/svg" xmlns:xlink="http://www.w3.org/1999/xlink" x="0px" y="0px"
	 viewBox="0 0 512 512" style="enable-background:new 0 0 512 512;" xml:space="preserve">
<g transform="translate(0.000000,512.000000) scale(0.100000,-0.100000)">
	<path d="M2400,5113c-334-33-658-157-920-352c-101-75-268-238-345-336c-157-201-271-432-334-680c-62-247-67-524-13-740
		c130-514,498-1225,1112-2145c222-334,523-758,581-821c47-50,111-50,158,0c58,63,358,487,581,821c615,922,982,1631,1112,2145
		c80,321,31,725-131,1070c-207,438-587,782-1042,943C2935,5097,2626,5136,2400,5113z M2797,4235c405-103,692-453,720-876
		c14-219-58-456-192-628c-130-169-298-285-502-348c-80-24-103-27-258-27c-149-1-180,2-250,22c-323,94-571,330-668,637
		c-109,347-18,717,240,973C2127,4226,2467,4318,2797,4235z"/>
</g>
</svg>
